<svg id="Layer_2" xmlns="http://www.w3.org/2000/svg" viewBox="0 0 266.71 185.3"><defs><style>.cls-1{fill:#683c11;}.cls-2{fill:#fff;}.cls-3{fill:#7d4e24;}.cls-4{fill:#b26e4e;}.cls-5{fill:#b17f4a;}.cls-6{fill:#ca9e67;}.cls-7{fill:#c7811c;}.cls-8{fill:#1d1d1b;}</style></defs><g id="cock"><g><path class="cls-8" d="M0,139.79c0-8.7,6.58-14.65,14.86-14.65,6.45,0,10.06,3.4,12.06,6.92l-5.18,2.55c-1.19-2.29-3.74-4.12-6.88-4.12-4.92,0-8.66,3.95-8.66,9.3s3.74,9.3,8.66,9.3c3.14,0,5.69-1.78,6.88-4.12l5.18,2.51c-2.04,3.52-5.6,6.96-12.06,6.96-8.28,0-14.86-5.94-14.86-14.65Z"/><path class="cls-8" d="M62.66,153.92v-11.89h-13.37v11.89h-6.03v-28.32h6.03v11.12h13.37v-11.12h6.07v28.32h-6.07Z"/><path class="cls-8" d="M106.86,153.92l-1.78-4.88h-12.65l-1.78,4.88h-6.62l10.95-28.32h7.56l10.91,28.32h-6.58Zm-8.11-23.09l-4.71,12.99h9.38l-4.67-12.99Z"/><path class="cls-8" d="M132.64,153.92v-23.01h-8.28v-5.31h22.58v5.31h-8.24v23.01h-6.07Z"/><path class="cls-8" d="M163.54,153.92v-28.32h20.04v5.18h-14.01v6.15h13.71v5.18h-13.71v6.58h14.01v5.22h-20.04Z"/><path class="cls-8" d="M220.86,153.92l-1.78-4.88h-12.65l-1.78,4.88h-6.62l10.95-28.32h7.56l10.91,28.32h-6.58Zm-8.11-23.09l-4.71,12.99h9.38l-4.67-12.99Z"/><path class="cls-8" d="M241.41,125.61h6.11v16.81c0,3.95,2.17,6.67,6.58,6.67s6.49-2.72,6.49-6.67v-16.81h6.11v16.98c0,7.05-4.03,11.84-12.61,11.84s-12.69-4.84-12.69-11.8v-17.02Z"/></g><polygon class="cls-2" points="38.54 97.44 38.55 97.44 38.54 97.42 38.54 97.44"/><polygon class="cls-1" points="98.82 114.53 90.79 121.33 106.85 121.33 98.82 114.53"/><g><path class="cls-3" d="M.93,167.5H3.92l5.58,14.63,5.61-14.63h2.99l-6.95,17.48h-3.28L.93,167.5Z"/><path class="cls-3" d="M28.06,167.5h2.62v17.48h-2.62v-17.48Z"/><path class="cls-3" d="M42.44,167.5h11.74v2.31h-9.12v5.11h8.94v2.31h-8.94v5.45h9.12v2.31h-11.74v-17.48Z"/><path class="cls-3" d="M65.32,167.5h2.65v10.56c0,2.99,1.65,4.9,4.72,4.9s4.69-1.91,4.69-4.9v-10.56h2.65v10.62c0,4.35-2.44,7.18-7.34,7.18s-7.37-2.86-7.37-7.16v-10.64Z"/><path class="cls-3" d="M98.45,177.86l-5.24,7.13h-3.17l6.71-8.96-6.32-8.52h3.17l4.85,6.71,4.82-6.71h3.17l-6.27,8.49,6.66,8.99h-3.15l-5.24-7.13Z"/><path class="cls-3" d="M146.52,171.09l-5.66,13.89h-1.1l-5.66-13.89v13.89h-2.62v-17.48h3.75l5.09,12.56,5.09-12.56h3.75v17.48h-2.62v-13.89Z"/><path class="cls-3" d="M168.95,167.21c5.22,0,8.81,3.85,8.81,9.04s-3.59,9.04-8.81,9.04-8.81-3.85-8.81-9.04,3.59-9.04,8.81-9.04Zm0,2.33c-3.75,0-6.11,2.86-6.11,6.71s2.36,6.71,6.11,6.71,6.11-2.88,6.11-6.71-2.41-6.71-6.11-6.71Z"/><path class="cls-3" d="M188.78,167.5h2.65v10.56c0,2.99,1.65,4.9,4.72,4.9s4.69-1.91,4.69-4.9v-10.56h2.65v10.62c0,4.35-2.44,7.18-7.34,7.18s-7.37-2.86-7.37-7.16v-10.64Z"/><path class="cls-3" d="M215.25,167.5h2.62v15.18h7.94v2.31h-10.56v-17.48Z"/><path class="cls-3" d="M236.56,167.5h2.62v17.48h-2.62v-17.48Z"/><path class="cls-3" d="M253.57,171.56v13.42h-2.62v-17.48h2.7l9.52,13.11v-13.11h2.62v17.48h-2.54l-9.67-13.42Z"/></g><polyline class="cls-3" points="106.73 97.34 128.11 97.34 84 53.23 73.25 42.48 62.56 53.17"/><polygon class="cls-4" points="190.02 29.07 190.02 29.07 190.02 29.07 190.02 29.07"/><polygon class="cls-4" points="206.08 29.07 206.08 29.07 206.08 29.07 206.08 29.07"/><polygon class="cls-3" points="118.64 42.49 107.95 53.18 152.19 97.42 165.03 97.42 165.03 88.88 118.64 42.49"/><polygon class="cls-2" points="38.61 97.42 38.62 97.42 38.61 97.4 38.61 97.42"/><polygon class="cls-1" points="38.61 97.4 38.62 97.42 60 97.42 38.61 76.03 38.61 97.4"/><polygon class="cls-6" points="38.61 74.69 61.33 97.42 82.71 97.42 38.61 53.31 38.61 74.69"/><polygon class="cls-5" points="39.8 53.17 84.05 97.42 105.42 97.42 61.18 53.17 39.8 53.17"/><polygon class="cls-6" points="85.25 53.17 129.48 97.42 150.85 97.42 106.59 53.17 85.25 53.17"/><polygon class="cls-5" points="165.03 66.16 152.04 53.17 130.59 53.17 165.03 87.54 165.03 66.16"/><polygon class="cls-6" points="165.03 53.17 153.37 53.17 165.03 64.83 165.03 53.17"/><g><polygon class="cls-1" points="165.98 53.1 165.98 97.42 181.1 97.42 181.1 53.1 181.1 37.72 165.98 53.1"/><polygon class="cls-3" points="214.17 37.72 214.17 53.1 214.17 97.42 229.28 97.42 229.28 53.1 214.17 37.72"/><path class="cls-5" d="M205.66,29.07h0s0,0,0,0V10.25h-7.56v2.99c3.29,.25,5.88,3,5.88,6.36s-2.59,6.1-5.88,6.36V97.42h15.12V36.76l-7.56-7.69Z"/><path class="cls-6" d="M191.23,19.59c0-3.37,2.62-6.13,5.93-6.36v-2.98h-7.56V29.07h0s-7.56,7.69-7.56,7.69v60.66h15.12V25.95c-3.31-.23-5.93-2.99-5.93-6.36Z"/><path class="cls-7" d="M202.51,18.51l-2.15,.12-2.52,.73s-.06-.03-.09-.05l.16-1.49-.32-1.54-.3,1.54,.16,1.5c-.1,.06-.19,.14-.19,.27,0,.18,.15,.33,.33,.33,.16,0,.28-.12,.31-.28l2.55-.41,2.05-.72Z"/><polygon class="cls-1" points="197.64 2.6 189.6 9.26 205.67 9.26 197.64 2.6"/></g><polygon class="cls-8" points="207.65 28.25 207.65 8.32 197.61 0 187.59 8.32 187.58 28.25 164.94 51.31 130.38 51.31 118.64 39.66 107.04 51.32 84.95 51.3 73.27 39.72 61.73 51.31 36.7 51.31 36.71 97.42 37.65 97.42 37.64 52.25 62.1 52.25 73.27 41.08 84.47 52.24 107.37 52.27 118.64 41.02 129.9 52.25 165.41 52.25 188.58 28.66 188.58 8.79 197.61 1.3 206.65 8.79 206.64 28.66 230.2 52.63 230.2 97.42 231.27 97.42 231.27 52.28 207.65 28.25"/></g></svg>